<svg xmlns="http://www.w3.org/2000/svg" viewBox="0 0 1024 768" role="img" aria-labelledby="title desc">
  <title id="title">Vivi platypus preview v7 side drawing</title>
  <desc id="desc">A stylized side-view platypus drawing mascot with visible bill, legs, and paddle tail.</desc>

  <defs>
    <linearGradient id="bg" x1="0" y1="0" x2="1" y2="1">
      <stop offset="0%" stop-color="#10235f"/>
      <stop offset="100%" stop-color="#26124f"/>
    </linearGradient>
    <linearGradient id="furTop" x1="0" y1="0" x2="1" y2="1">
      <stop offset="0%" stop-color="#9a6b4d"/>
      <stop offset="100%" stop-color="#714731"/>
    </linearGradient>
    <linearGradient id="furBelly" x1="0" y1="0" x2="0" y2="1">
      <stop offset="0%" stop-color="#dfb48c"/>
      <stop offset="100%" stop-color="#c3956f"/>
    </linearGradient>
    <linearGradient id="bill" x1="0" y1="0" x2="1" y2="1">
      <stop offset="0%" stop-color="#85909c"/>
      <stop offset="100%" stop-color="#697380"/>
    </linearGradient>
  </defs>

  <rect width="1024" height="768" rx="96" fill="url(#bg)"/>
  <ellipse cx="520" cy="676" rx="360" ry="56" fill="#12193c" opacity="0.86"/>

  <circle cx="150" cy="128" r="48" fill="#31beff" opacity="0.3"/>
  <circle cx="882" cy="136" r="62" fill="#f052a8" opacity="0.24"/>
  <circle cx="846" cy="594" r="90" fill="#ffcf4f" opacity="0.18"/>

  <path d="M318 478C261 457 230 405 231 359C232 319 259 303 300 316C341 329 390 379 403 438C412 478 377 500 318 478Z" fill="#744733"/>
  <path d="M335 466C294 450 270 413 272 377C273 349 289 340 318 349C349 359 385 396 395 439C401 465 374 482 335 466Z" fill="#84553e"/>

  <path d="M322 460C322 352 446 268 612 268C762 268 878 345 901 436C920 510 862 580 748 612C617 649 451 638 372 579C339 554 322 513 322 460Z" fill="url(#furTop)"/>
  <path d="M372 495C372 415 466 353 594 353C708 353 802 403 822 469C836 516 798 559 721 582C620 611 496 603 422 561C390 543 372 523 372 495Z" fill="url(#furBelly)"/>

  <path d="M705 338C744 335 788 350 818 378C833 392 839 406 836 418C832 432 817 442 794 447C756 454 708 450 670 435C641 423 624 406 626 389C629 370 650 349 678 341C686 338 696 338 705 338Z" fill="#8a6046"/>

  <path d="M789 378C841 370 902 399 941 448C954 464 957 478 949 489C940 502 917 509 884 510C839 511 791 497 756 473C733 457 721 438 725 420C729 403 746 385 771 379C777 377 783 377 789 378Z" fill="url(#bill)"/>
  <path d="M812 396C849 392 892 412 919 445C929 456 931 465 926 472C920 480 905 484 882 485C847 486 810 475 785 458C770 447 763 436 766 424C769 412 778 402 792 398C798 396 805 396 812 396Z" fill="#8f99a4"/>
  <ellipse cx="933" cy="488" rx="17" ry="7" fill="#616b75"/>
  <circle cx="916" cy="474" r="5" fill="#59636e"/>
  <circle cx="930" cy="470" r="5" fill="#59636e"/>

  <ellipse cx="790" cy="390" rx="14" ry="12" fill="#1f1510"/>
  <circle cx="794" cy="386" r="4" fill="#fff"/>
  <path d="M760 384C768 375 783 372 796 376" stroke="#593d2f" stroke-width="5" fill="none" stroke-linecap="round"/>

  <path d="M490 575C479 615 451 645 415 654C397 659 382 654 378 642C374 627 384 607 402 584C422 558 448 540 471 539C486 538 495 552 490 575Z" fill="#6f5f50"/>
  <path d="M428 643L406 668L430 663L450 681L454 658L479 654L462 638Z" fill="#3f352d"/>

  <path d="M606 580C595 620 566 649 530 658C511 662 496 657 492 645C488 630 498 610 517 587C537 562 564 544 587 543C602 542 611 556 606 580Z" fill="#6a5a4b"/>
  <path d="M544 647L522 671L547 667L567 684L571 661L595 657L579 641Z" fill="#3f352d"/>

  <path d="M704 578C694 614 670 640 639 648C623 652 610 648 607 638C604 626 613 609 629 588C646 565 669 549 688 548C700 547 707 560 704 578Z" fill="#736356"/>
  <path d="M652 637L633 659L655 655L673 671L676 651L699 648L685 634Z" fill="#41362e"/>

  <path d="M398 576C389 608 368 631 341 639C327 643 316 639 313 631C310 621 318 605 332 586C347 565 367 551 383 550C394 549 401 562 398 576Z" fill="#7b6a5b"/>
  <path d="M352 628L334 649L355 645L371 660L374 642L395 639L382 626Z" fill="#433830"/>

  <path d="M442 601H716" stroke="#ec5a9f" stroke-width="12" stroke-linecap="round" opacity="0.92"/>
  <path d="M456 563H706" stroke="#2fbeff" stroke-width="12" stroke-linecap="round" opacity="0.9"/>
  <path d="M430 636H734" stroke="#f2cd49" stroke-width="12" stroke-linecap="round" opacity="0.9"/>

  <text x="512" y="730" text-anchor="middle" font-size="72" font-family="Baloo 2, Nunito, Arial, sans-serif" fill="#f5efcc">Vivi</text>
</svg>
