<svg xmlns="http://www.w3.org/2000/svg" viewBox="0 0 720 720" role="img" aria-labelledby="title desc">
  <title id="title">Vivi nightlife platypus mascot</title>
  <desc id="desc">A neon platypus mascot with paddle tail and broad duck bill.</desc>

  <defs>
    <linearGradient id="night" x1="0" y1="0" x2="1" y2="1">
      <stop offset="0%" stop-color="#091b3c"/>
      <stop offset="55%" stop-color="#30145c"/>
      <stop offset="100%" stop-color="#09233f"/>
    </linearGradient>
    <linearGradient id="fur" x1="0" y1="0" x2="0" y2="1">
      <stop offset="0%" stop-color="#966248"/>
      <stop offset="100%" stop-color="#613a29"/>
    </linearGradient>
    <linearGradient id="bill" x1="0" y1="0" x2="1" y2="1">
      <stop offset="0%" stop-color="#f6c99f"/>
      <stop offset="100%" stop-color="#dfa378"/>
    </linearGradient>
  </defs>

  <rect width="720" height="720" rx="160" fill="url(#night)"/>
  <circle cx="150" cy="120" r="40" fill="#16c4ff" opacity="0.22"/>
  <circle cx="605" cy="160" r="52" fill="#ff4f8b" opacity="0.25"/>
  <circle cx="550" cy="590" r="66" fill="#ffd43b" opacity="0.18"/>

  <ellipse cx="360" cy="612" rx="185" ry="32" fill="#020b16" opacity="0.4"/>
  <ellipse cx="360" cy="394" rx="198" ry="186" fill="url(#fur)"/>
  <ellipse cx="360" cy="284" rx="156" ry="108" fill="url(#fur)"/>
  <ellipse cx="360" cy="320" rx="132" ry="60" fill="url(#bill)"/>
  <ellipse cx="322" cy="262" rx="10" ry="11" fill="#1f1510"/>
  <ellipse cx="398" cy="262" rx="10" ry="11" fill="#1f1510"/>
  <path d="M250 325C286 351 434 351 470 325" stroke="#d28c60" stroke-width="7" fill="none" stroke-linecap="round"/>
  <path d="M258 410H462L434 476C418 508 388 528 353 528H367C332 528 302 508 286 476Z" fill="#0eb8a8"/>
  <path d="M286 430H434" stroke="#16c4ff" stroke-width="8" opacity="0.9"/>
  <path d="M278 456H442" stroke="#ff4f8b" stroke-width="8" opacity="0.9"/>
  <path d="M270 482H450" stroke="#ffd43b" stroke-width="8" opacity="0.9"/>
  <ellipse cx="252" cy="536" rx="46" ry="30" fill="#714a37"/>
  <ellipse cx="468" cy="536" rx="46" ry="30" fill="#714a37"/>
  <path d="M300 566C332 545 388 545 420 566C389 586 331 586 300 566Z" fill="#563628"/>
  <path d="M202 508C165 524 163 571 201 590C230 604 269 598 290 579C304 567 306 548 295 533C276 509 237 495 202 508Z" fill="#6f4432"/>
  <rect x="460" y="420" width="136" height="108" rx="20" fill="#fff"/>
  <path d="M476 453H580" stroke="#16c4ff" stroke-width="9" stroke-linecap="round"/>
  <path d="M476 482H580" stroke="#ff4f8b" stroke-width="9" stroke-linecap="round"/>
  <path d="M476 511H580" stroke="#ffd43b" stroke-width="9" stroke-linecap="round"/>
  <text x="360" y="658" text-anchor="middle" font-size="54" font-family="Baloo 2, Nunito, Arial, sans-serif" fill="#fef3c7">Vivi After Dark</text>
</svg>
